#!OML:ASF I:\Actors\actors\Patient Classification 2\Patient 1\Session 1\actor1.ASF
:FULLY-SPECIFIED
:DEGREES
285
root -1.17053 17.7744 6.53208 -2.78585 1.72089 -2.49464
lowerback 15.5373 0.599803 0.702471
upperback -5.62984 0.872824 -0.656878
thorax -15.125 0.287792 -1.387
lowerneck -42.7868 -2.79318 -0.733498
upperneck 11.1175 -3.56412 1.6698
head 9.96195 -1.39927 0.0791562
rclavicle -1.64991e-014 -8.34896e-015
rhumerus -8.6042 -37.7378 -26.4048
rradius 125.754
rwrist 11.8228
rhand -49.3716 -49.7312
rfingers 7.12502
rthumb -21.9858 -78.5017
lclavicle -1.64991e-014 -8.34896e-015
lhumerus 7.94976 25.6268 42.8459
lradius 122.578
lwrist -1.17266
lhand -32.0835 -51.4668
lfingers 7.12502
lthumb -5.32933 -21.5538
rfemur 27.1149 -2.61258 18.5582
rtibia -23.0834
rfoot -8.24138 -17.6454
rtoes -2.12622
lfemur 26.8531 0.638597 -13.3535
ltibia -28.5332
lfoot 4.42085 12.0342
ltoes -17.237
286
root -1.16945 17.7727 6.54571 -2.81307 1.71901 -2.48626
lowerback 15.4435 0.589162 0.719267
upperback -5.68808 0.858363 -0.681096
thorax -15.1362 0.277671 -1.41899
lowerneck -42.767 -2.66917 -0.667235
upperneck 11.0952 -3.40055 1.49938
head 9.94402 -1.34704 0.0354786
rclavicle -1.88845e-014 -1.90833e-014
rhumerus -8.47867 -37.6801 -26.2959
rradius 125.573
rwrist 11.8269
rhand -49.2054 -49.9831
rfingers 7.12502
rthumb -21.8263 -78.7723
lclavicle -1.88845e-014 -1.90833e-014
lhumerus 8.04162 25.6946 42.6331
lradius 122.478
lwrist -1.12397
lhand -32.008 -51.4992
lfingers 7.12502
lthumb -5.25641 -21.5844
rfemur 27.1491 -2.59538 18.5497
rtibia -22.9819
rfoot -8.33396 -17.6058
rtoes -2.11943
lfemur 26.9044 0.585802 -13.3735
ltibia -28.4613
lfoot 4.27677 12.1
ltoes -17.2039
287
root -1.1683 17.7721 6.55976 -2.84423 1.74032 -2.48727
lowerback 15.3719 0.573096 0.719258
upperback -5.7542 0.835118 -0.690385
thorax -15.1715 0.265824 -1.42271
lowerneck -42.7346 -2.57343 -0.636486
upperneck 11.0527 -3.27245 1.4102
head 9.92009 -1.30106 0.0215156
rclavicle 9.83984e-015 -8.74653e-015
rhumerus -8.31272 -37.6469 -26.1688
rradius 125.304
rwrist 11.829
rhand -49.1879 -50.1833
rfingers 7.12502
rthumb -21.8094 -78.9744
lclavicle 9.83984e-015 -8.74653e-015
lhumerus 8.15684 25.7481 42.4055
lradius 122.371
lwrist -1.05467
lhand -32.0186 -51.5678
lfingers 7.12502
lthumb -5.26673 -21.6533
rfemur 27.1869 -2.54895 18.5626
rtibia -22.8663
rfoot -8.50686 -17.608
rtoes -1.83531
lfemur 26.942 0.528442 -13.3855
ltibia -28.3754
lfoot 4.1554 12.0889
ltoes -17.5877
288
root -1.16762 17.7738 6.57331 -2.87566 1.76992 -2.49522
lowerback 15.2812 0.562396 0.68727
upperback -5.81223 0.815417 -0.676135
thorax -15.1857 0.260611 -1.38221
lowerneck -42.7293 -2.50782 -0.635351
upperneck 11.0444 -3.17604 1.35705
head 9.9142 -1.26514 0.0193363
rclavicle 1.39149e-014 2.38542e-015
rhumerus -8.1266 -37.6871 -26.0571
rradius 125.048
rwrist 11.735
rhand -49.157 -50.2771
rfingers 7.12502
rthumb -21.7798 -79.0717
lclavicle 1.39149e-014 2.38542e-015
lhumerus 8.30421 25.762 42.1848
lradius 122.221
lwrist -0.859859
lhand -32.1038 -51.4587
lfingers 7.12502
lthumb -5.34898 -21.5462
rfemur 27.2153 -2.52261 18.5793
rtibia -22.7418
rfoot -8.63375 -17.6172
rtoes -1.79582
lfemur 26.9692 0.471219 -13.3878
ltibia -28.2729
lfoot 4.04263 12.0733
ltoes -17.6578
289
root -1.16716 17.7752 6.58577 -2.89197 1.75236 -2.46732
lowerback 15.1481 0.571043 0.626898
upperback -5.84447 0.814566 -0.669243
thorax -15.1421 0.26708 -1.33803
lowerneck -42.841 -2.48321 -0.653924
upperneck 11.1072 -3.11908 1.29057
head 9.94997 -1.24857 0.00659618
rclavicle -2.73329e-014 -1.19271e-014
rhumerus -7.79777 -37.784 -26.0322
rradius 124.762
rwrist 11.5992
rhand -49.1907 -50.4338
rfingers 7.12502
rthumb -21.8121 -79.2246
lclavicle -2.73329e-014 -1.19271e-014
lhumerus 8.44641 25.7903 41.9947
lradius 122.089
lwrist -0.683225
lhand -32.0883 -51.2158
lfingers 7.12502
lthumb -5.33395 -21.3029
rfemur 27.2073 -2.54771 18.5357
rtibia -22.6109
rfoot -8.65149 -17.5561
rtoes -1.89033
lfemur 26.9922 0.401434 -13.4344
ltibia -28.1583
lfoot 3.92242 12.1813
ltoes -17.2489
290
root -1.16616 17.775 6.59813 -2.9087 1.69611 -2.44226
lowerback 15.022 0.590529 0.584114
upperback -5.86848 0.832278 -0.66264
thorax -15.0921 0.280393 -1.30929
lowerneck -43.0081 -2.48894 -0.66876
upperneck 11.1461 -3.10006 1.21679
head 9.98333 -1.24989 -0.0167469
rclavicle 6.4605e-015 -2.34566e-014
rhumerus -7.35639 -37.8602 -26.0532
rradius 124.384
rwrist 11.4953
rhand -49.2898 -50.5652
rfingers 7.12502
rthumb -21.9073 -79.3449
lclavicle 6.4605e-015 -2.34566e-014
lhumerus 8.54318 25.8375 41.8459
lradius 122.063
lwrist -0.533904
lhand -31.9347 -51.0087
lfingers 7.12502
lthumb -5.18564 -21.0922
rfemur 27.1954 -2.5594 18.4897
rtibia -22.4832
rfoot -8.70189 -17.4618
rtoes -1.82571
lfemur 27.0249 0.343263 -13.4818
ltibia -28.0408
lfoot 3.80986 12.2637
ltoes -17.205
291
root -1.16588 17.7744 6.61037 -2.95542 1.64081 -2.45401
lowerback 14.9559 0.608483 0.566981
upperback -5.89616 0.853967 -0.65397
thorax -15.0838 0.292658 -1.29501
lowerneck -43.1343 -2.45467 -0.551596
upperneck 11.1065 -3.07502 1.0336
head 9.97744 -1.25867 -0.0997351
rclavicle -7.95139e-016 3.18055e-015
rhumerus -6.97483 -37.8948 -26.06
rradius 124.033
rwrist 11.3376
rhand -49.3507 -50.4251
rfingers 7.12502
rthumb -21.9658 -79.1979
lclavicle -7.95139e-016 3.18055e-015
lhumerus 8.65958 25.8913 41.7075
lradius 122.076
lwrist -0.460762
lhand -31.8651 -50.9016
lfingers 7.12502
lthumb -5.1185 -20.9834
rfemur 27.2217 -2.47452 18.5081
rtibia -22.3616
rfoot -8.85234 -17.4187
rtoes -1.63119
lfemur 27.0822 0.326036 -13.4792
ltibia -27.9303
lfoot 3.67222 12.2802
ltoes -17.4201
292
root -1.16542 17.7743 6.62094 -2.98528 1.60888 -2.48089
lowerback 14.882 0.61331 0.579098
upperback -5.91151 0.863395 -0.650091
thorax -15.0556 0.296388 -1.29894
lowerneck -43.2366 -2.36767 -0.356679
upperneck 11.021 -3.00737 0.776192
head 9.94841 -1.25574 -0.214192
rclavicle 9.74045e-015 1.03368e-014
rhumerus -6.57292 -37.9394 -26.0443
rradius 123.687
rwrist 11.1908
rhand -49.2628 -50.4005
rfingers 7.12502
rthumb -21.8814 -79.1832
lclavicle 9.74045e-015 1.03368e-014
lhumerus 8.85245 25.967 41.5361
lradius 122.059
lwrist -0.514345
lhand -31.9718 -50.7903
lfingers 7.12502
lthumb -5.22152 -20.8747
rfemur 27.2223 -2.36498 18.5517
rtibia -22.2326
rfoot -9.02031 -17.395
rtoes -1.37099
lfemur 27.1109 0.301533 -13.4601
ltibia -27.83
lfoot 3.412 12.3104
ltoes -17.8374
293
root -1.16447 17.7743 6.63185 -3.00804 1.56458 -2.51117
lowerback 14.7922 0.614465 0.62764
upperback -5.93071 0.874148 -0.655737
thorax -15.0213 0.296615 -1.33434
lowerneck -43.2753 -2.325 -0.314836
upperneck 10.9195 -2.95465 0.697146
head 9.91179 -1.24177 -0.240038
rclavicle 1.98785e-016 2.38542e-015
rhumerus -6.13179 -37.9184 -25.9924
rradius 123.249
rwrist 11.1919
rhand -49.0489 -50.7723
rfingers 7.12502
rthumb -21.676 -79.5788
lclavicle 1.98785e-016 2.38542e-015
lhumerus 9.06409 26.0542 41.307
lradius 122.026
lwrist -0.583542
lhand -31.9948 -50.6947
lfingers 7.12502
lthumb -5.24367 -20.7796
rfemur 27.188 -2.34313 18.5727
rtibia -22.0509
rfoot -9.12858 -17.2798
rtoes -1.20767
lfemur 27.1792 0.251843 -13.4423
ltibia -27.7991
lfoot 3.07156 12.37
ltoes -18.3546
294
root -1.1645 17.7739 6.6454 -3.06698 1.46651 -2.53616
lowerback 14.7105 0.634126 0.671849
upperback -5.94605 0.907162 -0.674421
thorax -14.9868 0.306636 -1.3881
lowerneck -43.3498 -2.33746 -0.364852
upperneck 10.8797 -2.94554 0.715276
head 9.90641 -1.23725 -0.223996
rclavicle -6.36111e-015 -4.77083e-015
rhumerus -5.79041 -37.8235 -25.9076
rradius 122.858
rwrist 11.2089
rhand -48.9442 -50.9023
rfingers 7.12502
rthumb -21.5754 -79.7205
lclavicle -6.36111e-015 -4.77083e-015
lhumerus 9.27054 26.1597 41.0545
lradius 121.962
lwrist -0.631672
lhand -31.9641 -50.5764
lfingers 7.12502
lthumb -5.21409 -20.6606
rfemur 27.1711 -2.37391 18.5676
rtibia -21.8291
rfoot -9.18462 -17.0886
rtoes -1.25801
lfemur 27.3446 0.255855 -13.4234
ltibia -27.8376
lfoot 2.87502 12.4213
ltoes -18.7168
295
root -1.16327 17.7766 6.65439 -2.97566 1.16921 -2.9137
lowerback 14.5479 0.690174 1.05548
upperback -6.03572 1.07545 -0.5833
thorax -14.9829 0.352653 -1.54646
lowerneck -43.4342 -2.3447 -0.385499
upperneck 10.9253 -2.93058 0.659387
head 9.93295 -1.23879 -0.240259
rclavicle 4.96962e-015 -6.36111e-015
rhumerus -5.52246 -37.7021 -25.7996
rradius 122.586
rwrist 11.0994
rhand -49.0327 -50.6215
rfingers 7.12502
rthumb -21.6605 -79.4299
lclavicle 4.96962e-015 -6.36111e-015
lhumerus 9.38993 26.261 40.7999
lradius 121.914
lwrist -0.620508
lhand -31.9285 -50.4248
lfingers 7.12502
lthumb -5.17968 -20.5081
rfemur 26.944 -2.18729 19.0011
rtibia -21.6505
rfoot -9.20148 -16.9976
rtoes -1.34161
lfemur 27.3606 0.381969 -13.0022
ltibia -27.8442
lfoot 2.76378 12.5463
ltoes -18.8496
296
root -1.16274 17.7793 6.66082 -2.84171 0.89868 -3.29242
lowerback 14.3936 0.741115 1.42563
upperback -6.15868 1.23663 -0.469202
thorax -15.024 0.397263 -1.66953
lowerneck -43.4515 -2.34424 -0.401158
upperneck 10.9684 -2.90361 0.578759
head 9.95003 -1.23876 -0.2641
rclavicle -1.98785e-016 -8.74653e-015
rhumerus -5.2242 -37.5895 -25.7056
rradius 122.356
rwrist 10.9693
rhand -49.1018 -50.3604
rfingers 7.12502
rthumb -21.7268 -79.1611
lclavicle -1.98785e-016 -8.74653e-015
lhumerus 9.44078 26.3534 40.5717
lradius 121.875
lwrist -0.55767
lhand -31.9462 -50.3062
lfingers 7.12502
lthumb -5.19676 -20.3899
rfemur 26.7 -1.97984 19.4519
rtibia -21.5282
rfoot -9.21418 -16.9568
rtoes -1.34316
lfemur 27.2926 0.451471 -12.5821
ltibia -27.7973
lfoot 2.64685 12.6861
ltoes -18.3481
297
root -1.16593 17.776 6.67547 -3.00039 0.985962 -2.93914
lowerback 14.406 0.741828 1.05487
upperback -6.13949 1.14706 -0.565216
thorax -15.0165 0.386097 -1.54377
lowerneck -43.5354 -2.35096 -0.410984
upperneck 11.0075 -2.90324 0.564887
head 9.97485 -1.24036 -0.268669
rclavicle 1.78906e-015 4.77083e-015
rhumerus -4.88511 -37.5759 -25.7042
rradius 122.08
rwrist 11.0096
rhand -49.1557 -50.1546
rfingers 7.12502
rthumb -21.7785 -78.9493
lclavicle 1.78906e-015 4.77083e-015
lhumerus 9.6109 26.502 40.4428
lradius 121.764
lwrist -0.594081
lhand -32.0785 -50.1823
lfingers 7.12502
lthumb -5.32453 -20.2692
rfemur 26.9206 -2.12795 19.0264
rtibia -21.4528
rfoot -9.28483 -16.8027
rtoes -1.20958
lfemur 27.4562 0.32943 -12.9818
ltibia -27.7053
lfoot 2.55383 12.6146
ltoes -17.5076
298
root -1.1682 17.7715 6.69074 -3.19829 1.06123 -2.58231
lowerback 14.4393 0.744574 0.691439
upperback -6.09337 1.05892 -0.681822
thorax -14.9888 0.373719 -1.44561
lowerneck -43.6547 -2.3805 -0.436896
upperneck 11.0973 -2.9468 0.651626
head 10.0257 -1.24729 -0.24126
rclavicle 3.77691e-015 2.14687e-014
rhumerus -4.49842 -37.639 -25.7472
rradius 121.709
rwrist 11.0898
rhand -49.1432 -50.2565
rfingers 7.12502
rthumb -21.7666 -79.0526
lclavicle 3.77691e-015 2.14687e-014
lhumerus 9.90302 26.6886 40.3729
lradius 121.578
lwrist -0.651579
lhand -32.1993 -50.0111
lfingers 7.12502
lthumb -5.4412 -20.101
rfemur 27.2304 -2.25341 18.5939
rtibia -21.4596
rfoot -9.33322 -16.6894
rtoes -1.05633
lfemur 27.6376 0.242661 -13.3827
ltibia -27.5427
lfoot 2.37453 12.523
ltoes -17.1017
299
root -1.16897 17.7697 6.70253 -3.25274 0.955184 -2.55962
lowerback 14.3602 0.777579 0.658153
upperback -6.10955 1.09595 -0.684898
thorax -14.958 0.394192 -1.43873
lowerneck -43.7152 -2.42949 -0.512043
upperneck 11.1733 -2.99182 0.751096
head 10.0654 -1.25588 -0.201424
rclavicle -6.75868e-015 2.38542e-015
rhumerus -3.98604 -37.705 -25.771
rradius 121.256
rwrist 11.0446
rhand -49.0303 -50.5246
rfingers 7.12502
rthumb -21.6581 -79.3332
lclavicle -6.75868e-015 2.38542e-015
lhumerus 10.1731 26.8767 40.2981
lradius 121.372
lwrist -0.529748
lhand -32.2949 -49.8042
lfingers 7.12502
lthumb -5.53351 -19.8964
rfemur 27.3578 -2.23075 18.5554
rtibia -21.5325
rfoot -9.28351 -16.6423
rtoes -1.18125
lfemur 27.668 0.232969 -13.4151
ltibia -27.3269
lfoot 2.12033 12.5748
ltoes -16.9645
